<?xml version="1.0" encoding="utf-8"?>
<!-- Generator: Adobe Illustrator 15.0.0, SVG Export Plug-In . SVG Version: 6.00 Build 0)  -->
<!DOCTYPE svg PUBLIC "-//W3C//DTD SVG 1.1//EN" "http://www.w3.org/Graphics/SVG/1.1/DTD/svg11.dtd">
<svg version="1.1" id="Layer_1" xmlns="http://www.w3.org/2000/svg" xmlns:xlink="http://www.w3.org/1999/xlink" x="0px" y="0px"
	 width="30px" height="30px" viewBox="0 0 30 30" style="enable-background:new 0 0 30 30;" xml:space="preserve">
<g>
	<path style="fill:#FFFFFF;" d="M15,0C6.715,0,0,6.716,0,15c0,8.285,6.715,15,15,15c8.283,0,15-6.715,15-15C30,6.716,23.283,0,15,0z
		 M15,28.125C7.763,28.125,1.875,22.236,1.875,15C1.875,7.763,7.763,1.875,15,1.875c7.236,0,13.125,5.887,13.125,13.125
		C28.125,22.236,22.236,28.125,15,28.125z"/>
	<path style="fill:#FFFFFF;" d="M22.104,8.593l-9.354,8.079l-3.599-2.688c-0.436-0.325-1.052-0.342-1.51,0
		C7.082,14.4,6.967,15.191,7.385,15.75l3.929,5.258c0.081,0.105,0.179,0.213,0.284,0.305c0.806,0.695,2.023,0.605,2.719-0.199
		l0.092-0.105l9.32-10.789c0.367-0.425,0.379-1.068,0-1.507C23.312,8.23,22.586,8.177,22.104,8.593z"/>
</g>
</svg>
