<?xml version="1.0" encoding="utf-8"?>
<!-- Generator: Adobe Illustrator 15.0.0, SVG Export Plug-In . SVG Version: 6.00 Build 0)  -->
<!DOCTYPE svg PUBLIC "-//W3C//DTD SVG 1.1//EN" "http://www.w3.org/Graphics/SVG/1.1/DTD/svg11.dtd">
<svg version="1.1" id="Layer_1" xmlns="http://www.w3.org/2000/svg" xmlns:xlink="http://www.w3.org/1999/xlink" x="0px" y="0px"
	 width="80px" height="63.634px" viewBox="0 0 80 63.634" style="enable-background:new 0 0 80 63.634;" xml:space="preserve">
<path style="fill:#555555;" d="M49.515,16.439c-2.356-1.251-5.043-1.877-8.061-1.877c-3.489,0-6.615,0.752-9.375,2.252
	c-2.76,1.502-4.918,3.668-6.475,6.497c-1.557,2.829-2.336,6.058-2.336,9.688c0,4.963,1.438,8.832,4.316,11.606
	c2.878,2.773,6.89,4.16,12.034,4.16c3.435,0,6.613-0.598,9.532-1.793v-3.42c-3.337,1.25-6.543,1.876-9.615,1.876
	c-4.032,0-7.126-1.084-9.28-3.254c-2.155-2.169-3.232-5.269-3.232-9.301c0-3.004,0.576-5.642,1.73-7.915
	c1.154-2.272,2.826-4.022,5.016-5.245c2.189-1.224,4.766-1.835,7.729-1.835c2.32,0,4.379,0.486,6.172,1.46
	c1.794,0.973,3.177,2.36,4.149,4.16c0.975,1.801,1.461,3.889,1.461,6.267c0,2.197-0.323,4.003-0.969,5.423
	c-0.647,1.418-1.521,2.126-2.618,2.126c-1.445,0-2.169-1.112-2.169-3.337v-0.5l0.458-9.697c-1-0.334-2.145-0.594-3.43-0.782
	c-1.287-0.188-2.458-0.281-3.516-0.281c-2.905,0-5.221,0.893-6.945,2.68c-1.723,1.786-2.584,4.112-2.584,6.976
	c0,2.489,0.648,4.463,1.949,5.923c1.3,1.46,3.083,2.19,5.35,2.19c1.252,0,2.377-0.271,3.379-0.813
	c1.001-0.542,1.842-1.354,2.523-2.44h0.25c0.277,1.001,0.82,1.794,1.627,2.378s1.759,0.876,2.857,0.876
	c1.487,0,2.798-0.459,3.931-1.377c1.133-0.917,2.013-2.2,2.639-3.848c0.625-1.646,0.939-3.465,0.939-5.453
	c0-3.031-0.652-5.703-1.95-8.02C53.7,19.474,51.873,17.691,49.515,16.439z M43.728,31.204c-0.25,4.075-1.717,6.111-4.4,6.111
	c-2.545,0-3.817-1.619-3.817-4.859c0-2.029,0.497-3.635,1.491-4.818c0.995-1.18,2.381-1.772,4.16-1.772
	c1.002,0,1.941,0.119,2.816,0.354L43.728,31.204z M14.275,27.771v1.564c0,0.648-0.526,1.174-1.174,1.174
	c-0.647,0-1.173-0.526-1.173-1.174v-1.564c0-0.648,0.526-1.173,1.173-1.173C13.749,26.598,14.275,27.123,14.275,27.771z
	 M75.26,21.511h-0.215c-0.785-3.593-3.353-5.477-7.55-5.477h-4.185c-1.094-2.051-2.401-3.975-3.918-5.73
	c-0.654-0.754-1.34-1.461-2.047-2.129l1.023-1.793l-0.44-1.603c-11.221-6.371-25.16-6.371-36.379,0l-0.44,1.603l0.917,1.607
	c-0.661,0.612-1.304,1.258-1.921,1.944c-1.52,1.69-2.828,3.557-3.943,5.54l-3.697-0.031c-3.953,0-6.444,2.056-7.205,5.834
	l-0.592-0.007c-3.076,0-4.583,1.51-4.613,4.633L0,31.72c-0.031,3.431,1.693,5.457,4.61,5.484l0.563-0.008
	c0.795,3.842,3.336,6.088,7.145,6.123l1.396,0.025c1.551,3.961,4.123,7.376,7.945,10.694c1.688,1.467,3.764,2.747,6.043,3.775
	c0.07,0.942,0.414,1.847,1.006,2.612c0.797,1.028,1.947,1.685,3.238,1.848l10.705,1.359c0.208,0.025,0.414,0.04,0.619,0.04
	c2.444,0,4.519-1.833,4.824-4.259c0.166-1.291-0.182-2.568-0.979-3.598c-0.797-1.03-1.947-1.687-3.238-1.849l-10.703-1.357
	c-1.9-0.246-3.664,0.651-4.655,2.125c-1.823-0.864-3.476-1.903-4.807-3.059c-3.034-2.636-5.168-5.282-6.569-8.273l0.841,0.015
	c0.003,0,0.006,0,0.01,0c0.29,0,0.565-0.163,0.771-0.366c0.208-0.206,0.324-0.534,0.325-0.826l0.014-25.629
	c0.956-1.635,2.066-3.168,3.329-4.574c0.387-0.43,0.787-0.838,1.195-1.234l1.008,1.767l1.597,0.44
	c8.332-4.708,18.684-4.708,27.015,0l1.598-0.441l0.896-1.57c0.438,0.438,0.869,0.888,1.282,1.367
	c1.313,1.519,2.454,3.18,3.415,4.951v24.942c0,0.647,0.524,1.173,1.173,1.173h5.883c4.069,0,6.765-2.297,7.561-6.259h0.204
	c3.012,0,4.74-1.913,4.74-5.245v-5.836C80,22.03,77.467,21.511,75.26,21.511z M4.632,35.138c-0.61-0.006-2.47,0.025-2.44-3.263
	l0.056-5.74c0.02-2.114,0.762-2.277,2.494-2.277c0,0,0.001,0,0.002,0l0.266-0.019l-0.1,10.431c-0.003,0.297,0.006,0.583,0.02,0.866
	L4.632,35.138z M29.903,57.104c0.168-1.336,1.308-2.342,2.65-2.342c0.113,0,0.228,0.008,0.345,0.021l10.704,1.359
	c0.711,0.089,1.344,0.449,1.781,1.016c0.439,0.566,0.631,1.27,0.539,1.98c-0.183,1.449-1.52,2.509-2.994,2.32L32.224,60.1
	c-0.71-0.088-1.344-0.449-1.781-1.016C30.004,58.518,29.812,57.814,29.903,57.104z M7.101,34.267l0.1-10.465
	c0.047-5.102,2.58-6.045,4.728-6.161v6.218c0,0.648,0.526,1.174,1.173,1.174c0.648,0,1.174-0.525,1.174-1.174v-6.215l2.638,0.023
	L16.899,41.12l-4.56-0.04C7.957,41.038,7.071,37.353,7.101,34.267z M26.106,10.398l-2.365-4.142c9.972-5.214,22.024-5.215,31.996,0
	l-2.362,4.141C44.863,6.027,34.618,6.028,26.106,10.398z M72.959,34.562c0,2.971-0.949,6.51-5.464,6.51h-4.708v-22.69h2.348v10.953
	c0,0.648,0.524,1.174,1.172,1.174c0.648,0,1.176-0.526,1.176-1.174V18.382h0.013c3.83,0,5.464,1.709,5.464,5.713V34.562z
	 M77.653,31.916c0,2.521-1.128,2.889-2.355,2.896c0.001-0.084,0.008-0.164,0.008-0.25V24.095c0-0.082-0.007-0.156-0.007-0.236
	c1.934,0.006,2.354,0.406,2.354,2.221V31.916z"/>
</svg>
