<?xml version="1.0" encoding="utf-8"?>
<!-- Generator: Adobe Illustrator 15.0.0, SVG Export Plug-In . SVG Version: 6.00 Build 0)  -->
<!DOCTYPE svg PUBLIC "-//W3C//DTD SVG 1.1//EN" "http://www.w3.org/Graphics/SVG/1.1/DTD/svg11.dtd">
<svg version="1.1" id="Layer_1" xmlns="http://www.w3.org/2000/svg" xmlns:xlink="http://www.w3.org/1999/xlink" x="0px" y="0px"
	 width="80px" height="80px" viewBox="0 0 80 80" enable-background="new 0 0 80 80" xml:space="preserve">
<path fill="#222222" d="M23.857,34.715c0-0.632,0.512-1.144,1.143-1.144h28.57c0.633,0,1.145,0.512,1.145,1.144
	c0,0.631-0.512,1.143-1.145,1.143H25C24.369,35.857,23.857,35.346,23.857,34.715z M23.857,39.285c0-0.631,0.512-1.143,1.143-1.143
	h9.143c0.631,0,1.143,0.512,1.143,1.143c0,0.632-0.512,1.144-1.143,1.144H25C24.369,40.429,23.857,39.917,23.857,39.285z
	 M45.57,39.285c0,0.632-0.512,1.144-1.143,1.144h-6.857c-0.631,0-1.143-0.512-1.143-1.144c0-0.631,0.512-1.143,1.143-1.143h6.857
	C45.061,38.143,45.57,38.654,45.57,39.285z M77.57,73.143h-1.143V34.857c0-2.206-1.794-4-4-4h-8.57V16h6.856
	c0.632,0,1.144-0.512,1.144-1.143V12c0-2.835-2.308-5.143-5.144-5.143c-0.129,0-0.256,0.01-0.382,0.02
	c-0.062-0.011-0.125-0.02-0.189-0.02H21c-2.834,0-5.143,2.309-5.143,5.143v18.857H7.286c-2.206,0-4,1.794-4,4v38.286H2.143
	C1.515,73.143,1,73.657,1,74.286v0.571c0,2.25,1.457,4.17,3.474,4.861c0,0,0.006,0.006,0.011,0.006C4.806,79.896,5.177,80,5.571,80
	h0.572h64.572h2.855c2.834,0,5.144-2.309,5.144-5.143v-0.571C78.714,73.657,78.2,73.143,77.57,73.143z M63.857,12
	c0-0.184,0.021-0.362,0.054-0.537c0.021-0.103,0.054-0.2,0.085-0.299c0.02-0.063,0.035-0.129,0.061-0.19
	c0.051-0.128,0.111-0.251,0.182-0.371c0.013-0.023,0.023-0.047,0.037-0.069c0.084-0.136,0.177-0.265,0.281-0.385
	c0-0.001,0.002-0.003,0.002-0.004c0.438-0.501,1.051-0.854,1.75-0.957c0.012-0.001,0.022-0.006,0.034-0.008
	c0.122-0.016,0.244-0.038,0.372-0.038c1.574,0,2.855,1.282,2.855,2.857v1.714h-5.713V12z M63.857,33.143h8.57
	c0.943,0,1.715,0.771,1.715,1.714v38.286h-2.285V36.857c0-0.788-0.642-1.428-1.43-1.428h-6.57V33.143z M17,67.43
	c0.628,0,1.143-0.516,1.143-1.145V37.714v-2.286v-2.286v-2.286V12c0-1.577,1.28-2.857,2.857-2.857h41.441
	c-0.402,0.598-0.676,1.287-0.797,2.026c-0.008,0.041-0.013,0.081-0.02,0.121c-0.032,0.232-0.055,0.468-0.055,0.709v2.857v16v2.286
	v2.286v2.286v28.571c0,0.629,0.515,1.145,1.144,1.145c0.628,0,1.144-0.516,1.144-1.145V37.714h5.713v35.429H43.657h-7.6H10.143
	V37.714h5.714v28.571C15.857,66.914,16.372,67.43,17,67.43z M5.571,34.857c0-0.942,0.771-1.714,1.714-1.714h8.571v2.286h-6.57
	c-0.789,0-1.429,0.64-1.429,1.428v36.286H5.571V34.857z M76.107,76.171c-0.474,0.915-1.435,1.543-2.537,1.543H6.143
	c-0.194,0-0.389-0.017-0.572-0.062c-1.12-0.223-2.005-1.104-2.229-2.223h2.229H9h26.485c0.646,0.719,1.572,1.143,2.543,1.143h3.658
	c0.978,0,1.896-0.424,2.543-1.143h26.485h3.229h2.371h0.058C76.318,75.691,76.229,75.938,76.107,76.171z M8.857,22.857
	c0-0.709,0.577-1.286,1.286-1.286c0.708,0,1.286,0.577,1.286,1.286s-0.577,1.286-1.286,1.286S8.857,23.566,8.857,22.857z
	 M23.857,19.429c0-0.631,0.512-1.143,1.143-1.143h28.57c0.633,0,1.145,0.512,1.145,1.143c0,0.631-0.512,1.143-1.145,1.143H25
	C24.369,20.571,23.857,20.06,23.857,19.429z M23.857,24c0-0.631,0.512-1.143,1.143-1.143h12.571c0.631,0,1.143,0.512,1.143,1.143
	s-0.512,1.143-1.143,1.143H25C24.369,25.143,23.857,24.631,23.857,24z M9,19.429V12C9,5.383,14.383,0,21,0
	c0.631,0,1.143,0.512,1.143,1.143S21.631,2.286,21,2.286c-5.356,0-9.714,4.358-9.714,9.714v7.429c0,0.631-0.512,1.143-1.143,1.143
	C9.512,20.571,9,20.06,9,19.429z"/>
</svg>
