<?xml version="1.0" encoding="utf-8"?>
<!-- Generator: Adobe Illustrator 15.0.0, SVG Export Plug-In . SVG Version: 6.00 Build 0)  -->
<!DOCTYPE svg PUBLIC "-//W3C//DTD SVG 1.1//EN" "http://www.w3.org/Graphics/SVG/1.1/DTD/svg11.dtd">
<svg version="1.1" id="Layer_1" xmlns="http://www.w3.org/2000/svg" xmlns:xlink="http://www.w3.org/1999/xlink" x="0px" y="0px"
	 width="80px" height="80px" viewBox="0 0 80 80" style="enable-background:new 0 0 80 80;" xml:space="preserve">
<path style="fill:#FFFFFF;" d="M56.943,19.815c0-5.209-4.238-9.447-9.448-9.447s-9.448,4.238-9.448,9.447
	c0,5.21,4.238,9.449,9.448,9.449S56.943,25.025,56.943,19.815z M40.355,19.815c0-3.937,3.203-7.139,7.14-7.139
	c3.938,0,7.141,3.202,7.141,7.139c0,3.938-3.203,7.142-7.141,7.142C43.559,26.957,40.355,23.752,40.355,19.815z M47.426,46.463
	l6.595-11.816c0.311-0.556,1.014-0.754,1.569-0.445c0.558,0.312,0.757,1.014,0.446,1.571l-6.595,11.815
	c-0.211,0.379-0.604,0.592-1.009,0.592c-0.19,0-0.384-0.047-0.562-0.146C47.314,47.723,47.115,47.02,47.426,46.463z M62.572,40.43
	h-4.033c3.158-5.513,6.125-11.016,7.292-14.127c0.798-2.129,1.203-4.404,1.203-6.763C67.034,8.766,58.27,0,47.495,0
	S27.956,8.766,27.956,19.54c0,2.205,0.402,4.473,1.196,6.739c0.741,2.12,4.016,8.066,7.505,14.151H16.984
	c-2.659,0-4.822,2.164-4.822,4.824v29.925c0,2.658,2.163,4.821,4.822,4.821h45.588c2.658,0,4.821-2.163,4.821-4.821V45.254
	C67.394,42.594,65.23,40.43,62.572,40.43z M30.265,19.54c0-9.5,7.729-17.23,17.23-17.23s17.231,7.73,17.231,17.23
	c0,2.082-0.355,4.085-1.057,5.953c-2.365,6.303-12.827,23.51-16.143,28.9c-3.068-5.135-14.792-24.859-16.197-28.875
	C30.623,23.496,30.265,21.485,30.265,19.54z M59.975,60.215h-7.877c-0.547-0.031-4.599-0.18-7.416,2.455
	c-2.451,2.292-6.898,9.025-7.479,9.911h-3.607v-5.305c0.053-0.64,0.267-4.187-1.294-6.236h0.188
	c0.134,0.016,0.371,0.035,0.691,0.035c1.333,0,4.097-0.349,6.762-2.841c1.128-1.057,2.759-3.035,4.244-4.939
	c1.158,1.945,1.936,3.238,2.063,3.451l0.227,0.43c0.192,0.365,0.565,0.602,0.979,0.615c0.014,0,0.027,0.002,0.041,0.002
	c0.397,0,0.769-0.207,0.979-0.545c0.228-0.365,2.436-3.912,5.227-8.574h6.272V60.215z M59.975,62.688v9.894H40.176
	c1.522-2.252,4.488-6.51,6.194-8.104c2.155-2.015,5.561-1.792,5.59-1.792L59.975,62.688z M42.828,51.008
	c-1.57,2.043-3.406,4.326-4.575,5.42c-2.695,2.521-5.388,2.17-5.49,2.154l-2.335-0.002c-0.389-0.535-0.747-1.037-1.062-1.484
	c-0.628-0.891-1.125-1.594-1.606-2.158c-1.613-1.893-1.585-4.924-1.584-4.977v-1.287h15.275
	C41.934,49.492,42.395,50.273,42.828,51.008z M25.878,56.541c0.409,0.479,0.876,1.143,1.468,1.98
	c0.013,0.018,0.027,0.037,0.04,0.055l-7.805-0.008v-9.895h4.122v1.262C23.703,50.098,23.648,53.926,25.878,56.541z M19.581,61.04
	h9.591c0.349,0.462,0.725,0.947,1.136,1.457c0.908,1.127,0.896,3.773,0.819,4.611l-0.005,5.473H19.581V61.04z M64.921,75.179
	c0,1.295-1.054,2.348-2.349,2.348H16.984c-1.295,0-2.349-1.053-2.349-2.348V45.254c0-1.297,1.054-2.35,2.349-2.35h21.098
	c0.648,1.119,1.292,2.225,1.919,3.297H18.345c-0.684,0-1.237,0.555-1.237,1.236v26.38c0,0.683,0.553,1.236,1.237,1.236h42.866
	c0.684,0,1.236-0.554,1.236-1.236v-26.38c0-0.682-0.553-1.236-1.236-1.236h-6.036c0.634-1.07,1.284-2.178,1.937-3.297h5.461
	c1.295,0,2.349,1.053,2.349,2.35V75.179z"/>
</svg>
