<?xml version="1.0" encoding="utf-8"?>
<!-- Generator: Adobe Illustrator 15.0.0, SVG Export Plug-In . SVG Version: 6.00 Build 0)  -->
<!DOCTYPE svg PUBLIC "-//W3C//DTD SVG 1.1//EN" "http://www.w3.org/Graphics/SVG/1.1/DTD/svg11.dtd">
<svg version="1.1" id="Layer_1" xmlns="http://www.w3.org/2000/svg" xmlns:xlink="http://www.w3.org/1999/xlink" x="0px" y="0px"
	 width="80px" height="80px" viewBox="0 0 80 80" style="enable-background:new 0 0 80 80;" xml:space="preserve">
<path style="fill:#FFFFFF;" d="M37.707,1.777c-0.18-0.25-0.25-0.55-0.19-0.84c0.1-0.61,0.69-1.03,1.299-0.92
	c0.3,0.05,0.56,0.22,0.73,0.47c0.17,0.24,0.24,0.54,0.19,0.84c-0.1,0.54-0.56,0.93-1.109,0.93c-0.07,0-0.13-0.01-0.2-0.02
	C38.137,2.188,37.877,2.027,37.707,1.777z M22.748,17.006c0.553,0,1-0.448,1-1v-4.25c0-5.375,4.374-9.749,9.749-9.749h1.25
	c0.553,0,1-0.448,1-1s-0.447-1-1-1h-1.25c-6.478,0-11.749,5.271-11.749,11.749v4.25C21.749,16.558,22.196,17.006,22.748,17.006z
	 M18.713,63.131c-0.907,0.547-1.198,1.725-0.651,2.631c0.547,0.906,1.725,1.198,2.631,0.651s1.198-1.725,0.651-2.631
	S19.62,62.584,18.713,63.131z M65.784,54.082c-0.17-0.25-0.431-0.41-0.72-0.459c-0.61-0.121-1.2,0.31-1.311,0.91
	c-0.049,0.299,0.021,0.59,0.19,0.84s0.43,0.409,0.729,0.469c0.061,0.011,0.131,0.011,0.19,0.011c0.55,0,1.021-0.39,1.11-0.931
	C66.034,54.633,65.964,54.332,65.784,54.082z M45.786,20.326c-0.71-0.91-2.22-0.91-2.939,0l-6.7,8.54
	c-0.44,0.56-0.53,1.319-0.21,1.97c0.31,0.649,0.96,1.05,1.68,1.05h2.13v7.119c0,0.55,0.45,1,1,1s1-0.45,1-1v-7.249
	c0-1.03-0.84-1.87-1.87-1.87h-1.99l6.43-8.199l6.43,8.199h-2.131c-1.029,0-1.869,0.84-1.869,1.87v13.249c0,0.549,0.449,1,1,1
	c0.55,0,1-0.451,1-1V31.885h2.27c0.73,0,1.369-0.4,1.68-1.05c0.32-0.65,0.24-1.41-0.21-1.97L45.786,20.326z M40.747,41.004
	c-0.55,0-1,0.45-1,1s0.45,1,1,1s1-0.45,1-1S41.297,41.004,40.747,41.004z M43.547,58.851c1.104,0,2-0.896,2-1.999
	c0-1.105-0.896-2-2-2c-1.104,0-2,0.895-2,2C41.547,57.955,42.443,58.851,43.547,58.851z M53.174,63.307
	c-2.77,4.613-6.863,6.299-10.152,7.653c-1.365,0.562-2.543,1.048-3.371,1.643c-0.291,0.206-1,0.745-1.993,1.513l1.106,1.193
	c0.181,0.195,0.276,0.453,0.266,0.719c-0.01,0.265-0.125,0.515-0.319,0.695l-3.25,3.011C35.268,79.912,35.023,80,34.78,80
	c-0.269,0-0.536-0.107-0.733-0.32c-0.376-0.405-0.352-1.038,0.054-1.413l2.518-2.331l-1.201-1.297
	c-0.008-0.01-0.021-0.013-0.029-0.023c-0.004-0.006-0.004-0.012-0.009-0.018L20.292,58.316l-5.879,5.225
	c-0.413,0.366-1.045,0.33-1.411-0.084c-0.367-0.412-0.33-1.044,0.083-1.41l6.486-5.764c-0.423-3.15-1.753-7.504-2.357-9.477
	l-0.162-0.534c-0.844-2.825,0.465-6.071,1.98-9.831c1.494-3.708,3.188-7.909,3.236-12.637c0.026-2.551,1.777-3.984,3.493-4.082
	c0.668-0.039,1.363,0.126,1.987,0.503v-7.47c0-3.17,2.579-5.75,5.749-5.75h20.498c3.171,0,5.749,2.58,5.749,5.75v2.08l0.07-0.04
	c0.641-0.4,1.37-0.61,2.12-0.61c1.38,0,2.63,0.69,3.359,1.84c1.181,1.85,0.63,4.31-1.22,5.479l-4.33,2.75v2.22
	c0.58-0.35,1.24-0.52,1.92-0.52c1.34,0,2.58,0.68,3.3,1.81c1.15,1.82,0.61,4.239-1.199,5.39l-1.761,1.12
	c1.131,0.4,2.031,1.3,2.41,2.49c0.641,2.05-0.5,4.23-2.539,4.87l-0.66,0.21c0.529,0.18,1.01,0.48,1.41,0.859
	c0.699,0.681,1.14,1.601,1.16,2.631c0.02,1.01-0.351,1.969-1.061,2.699c-0.7,0.74-1.64,1.16-2.65,1.18l-0.33,0.01v8.029
	c0,3.17-2.578,5.75-5.749,5.75h-0.714C53.259,63.105,53.23,63.21,53.174,63.307z M59.744,21.886l3.26-2.07
	c0.91-0.58,1.19-1.8,0.601-2.72c-0.56-0.88-1.83-1.17-2.72-0.61l-1.141,0.73V21.886z M59.984,43.613l-1.129,0.021h-0.061
	c-0.018,0.001-0.032,0.01-0.05,0.01c-0.005,0-0.008-0.002-0.013-0.002l-0.018,0.002h-0.17c-0.99,0.03-1.779,0.85-1.76,1.84
	c0.029,0.97,0.83,1.76,1.8,1.76v0.032c0.013-0.002,0.026-0.006,0.04-0.008v-0.015v-0.01h0.12l1.28-0.03
	c0.479-0.01,0.919-0.209,1.26-0.56c0.329-0.351,0.51-0.8,0.5-1.28C61.765,44.404,60.955,43.613,59.984,43.613z M60.705,36.054
	c-0.19,0-0.381,0.03-0.561,0.09l-3.64,1.149c-0.479,0.15-0.87,0.48-1.101,0.931c-0.239,0.439-0.279,0.949-0.129,1.43
	c0.3,0.949,1.39,1.529,2.359,1.229l0.688-0.209c0.028-0.014,0.057-0.022,0.086-0.033l0.137-0.048h0.01l2.721-0.859
	c0.989-0.311,1.539-1.37,1.229-2.36C62.265,36.594,61.525,36.054,60.705,36.054z M57.465,30.275c-0.43,0.27-0.73,0.69-0.84,1.19
	c-0.109,0.5-0.02,1.01,0.25,1.44c0.54,0.85,1.77,1.129,2.629,0.58l3.181-2.02c0.43-0.27,0.729-0.69,0.84-1.19s0.021-1.01-0.25-1.44
	c-0.351-0.55-0.95-0.88-1.61-0.88c-0.369,0-0.72,0.1-1.02,0.3l-1.34,0.85L57.465,30.275z M29.748,13.006h27.998v-0.25
	c0-2.068-1.683-3.75-3.75-3.75H33.497c-2.067,0-3.75,1.682-3.75,3.75V13.006z M29.748,50.003h27.998v-0.86
	c-1.659-0.379-2.92-1.85-2.96-3.609c-0.02-1.07,0.4-2.05,1.1-2.76c-1.18-0.369-2.129-1.289-2.52-2.52
	c-0.31-0.98-0.22-2.029,0.26-2.96c0.48-0.919,1.29-1.6,2.27-1.91l0.561-0.18c-0.51-0.291-0.939-0.71-1.27-1.23
	c-0.561-0.88-0.74-1.92-0.51-2.94c0.229-1.02,0.84-1.89,1.709-2.45l1.36-0.86v-4.02v-7.04v-1.66H29.748V50.003z M29.748,57.252
	c0,2.068,1.683,3.75,3.75,3.75h20.498c2.067,0,3.75-1.682,3.75-3.75v-5.249H29.748V57.252z M50.992,63.002H33.497
	c-3.17,0-5.749-2.58-5.749-5.75V23.898c-0.224-1.669-1.147-2.23-1.874-2.178c-0.764,0.043-1.592,0.721-1.606,2.105
	c-0.053,5.105-1.821,9.492-3.381,13.363c-1.374,3.411-2.562,6.356-1.92,8.508l0.16,0.524c0.666,2.176,2.191,7.169,2.516,10.608
	l14.652,15.813c0.825-0.64,1.796-1.386,2.196-1.669c1.009-0.727,2.35-1.279,3.77-1.863c0.531-0.219,1.074-0.443,1.621-0.684
	l0.607-0.303c-0.054,0.041-0.12,0.076-0.182,0.113C46.693,67.157,49.126,65.719,50.992,63.002z M64.744,57.102
	c-0.553,0-1,0.447-1,0.999c0,5.376-4.373,9.749-9.749,9.749c-0.552,0-0.999,0.447-0.999,1s0.447,1,0.999,1
	c6.478,0,11.749-5.271,11.749-11.749C65.744,57.549,65.297,57.102,64.744,57.102z"/>
</svg>
