<?xml version="1.0" encoding="utf-8"?>
<!-- Generator: Adobe Illustrator 15.0.0, SVG Export Plug-In . SVG Version: 6.00 Build 0)  -->
<!DOCTYPE svg PUBLIC "-//W3C//DTD SVG 1.1//EN" "http://www.w3.org/Graphics/SVG/1.1/DTD/svg11.dtd">
<svg version="1.1" id="Layer_1" xmlns="http://www.w3.org/2000/svg" xmlns:xlink="http://www.w3.org/1999/xlink" x="0px" y="0px"
	 width="20px" height="20px" viewBox="0 0 20 20" enable-background="new 0 0 20 20" xml:space="preserve">
<path fill="#999999" d="M19.624,17.876l-3.88-3.88c1.096-1.465,1.756-3.274,1.756-5.245c0-4.833-3.917-8.75-8.75-8.75
	S0,3.917,0,8.751s3.917,8.75,8.75,8.75c1.969,0,3.779-0.659,5.242-1.755l3.883,3.879C18.105,19.854,18.352,20,18.75,20
	c0.691,0,1.25-0.558,1.25-1.249C19.999,18.479,19.932,18.183,19.624,17.876z M2.5,8.751c0-3.452,2.798-6.25,6.25-6.25
	S15,5.299,15,8.751c0,3.453-2.798,6.25-6.25,6.25C5.298,15.002,2.5,12.202,2.5,8.751z"/>
</svg>
