<?xml version="1.0" encoding="utf-8"?>
<!-- Generator: Adobe Illustrator 15.0.0, SVG Export Plug-In . SVG Version: 6.00 Build 0)  -->
<!DOCTYPE svg PUBLIC "-//W3C//DTD SVG 1.1//EN" "http://www.w3.org/Graphics/SVG/1.1/DTD/svg11.dtd">
<svg version="1.1" id="Layer_1" xmlns="http://www.w3.org/2000/svg" xmlns:xlink="http://www.w3.org/1999/xlink" x="0px" y="0px"
	 width="25px" height="25px" viewBox="0 0 25 25" enable-background="new 0 0 25 25" xml:space="preserve">
<path fill="#999999" d="M22.896,20.854l-4.526-4.526c1.278-1.709,2.048-3.82,2.048-6.119C20.417,4.57,15.848,0,10.209,0
	C4.571,0,0,4.569,0,10.208c0,5.64,4.57,10.208,10.209,10.208c2.298,0,4.41-0.77,6.116-2.048l4.529,4.526
	c0.27,0.269,0.555,0.438,1.021,0.438c0.807,0,1.458-0.65,1.458-1.458C23.333,21.557,23.254,21.212,22.896,20.854z M2.917,10.208
	c0-4.028,3.264-7.292,7.292-7.292c4.027,0,7.292,3.264,7.292,7.292c0,4.028-3.265,7.292-7.292,7.292
	C6.181,17.5,2.917,14.234,2.917,10.208z"/>
</svg>
